extratorrent.com
 
http://extratorrent.com/torrent/2413891/


Genre:Thriller
Language:English
IMDb:http://www.imdb.com/title/tt1352388/
Source:720p.BluRay.x264-7SinS


Format : MPEG-4
Format profile : Base Media
Codec ID : isom
File size : 2.08 GiB
Duration : 1h 31mn
Overall bit rate : 3 246 Kbps


Video
Format profile : High@L4.1
Format settings, CABAC : Yes
Format settings, ReFrames : 3 frames
Codec ID : avc1
Codec ID/Info : Advanced Video Coding
Duration : 1h 31mn
Bit rate mode : Variable
Bit rate : 3 000 Kbps
Maximum bit rate : 21.1 Mbps
Width : 1 280 pixels
Height : 720 pixels
Display aspect ratio : 16:9
Frame rate mode : Constant
Frame rate : 23.976 fps
Color space : YUV
Chroma subsampling : 4:2:0
Bit depth : 8 bits
Scan type : Progressive
Bits/(Pixel*Frame) : 0.136
Stream size : 1.87 GiB (90%)
Writing library : x264


Audio
ID : 2
Format : AAC
Format/Info : Advanced Audio Codec
Format version : Version 4
Format profile : LC
Format settings, SBR : No
Codec ID : 40
Duration : 1h 31mn
Bit rate mode : Variable
Bit rate : 318 Kbps
Maximum bit rate : 417 Kbps
Channel(s) : 2 channels
Channel positions : Front: L R
Sampling rate : 48.0 KHz
Stream size : 209 MiB (10%)


Plot:
Upon taking her vows to become a nun, Sister Sarah is abused, brainwashed and drugged into submission by the corrupt clergy
 
http://leetleech.org/images/03704175904987866685.png
 
http://leetleech.org/images/96105190606059193325.png
 
http://leetleech.org/images/29158105147656958453.png
 
http://leetleech.org/images/61041975164626499419.png